<?xml version="1.0" standalone="no"?>
<!DOCTYPE svg PUBLIC "-//W3C//DTD SVG 20010904//EN"
 "http://www.w3.org/TR/2001/REC-SVG-20010904/DTD/svg10.dtd">
<svg version="1.0" xmlns="http://www.w3.org/2000/svg"
 width="512.000000pt" height="512.000000pt" viewBox="0 0 512.000000 512.000000"
 preserveAspectRatio="xMidYMid meet">
<metadata>
Created by potrace 1.15, written by Peter Selinger 2001-2017
</metadata>
<g transform="translate(0.000000,512.000000) scale(0.100000,-0.100000)"
fill="#000000" stroke="none">
<path d="M360 5101 c-91 -29 -142 -61 -211 -130 -70 -70 -106 -130 -133 -220
-14 -50 -16 -255 -16 -2191 0 -2343 -4 -2173 58 -2295 32 -64 143 -175 207
-207 122 -62 -48 -58 2295 -58 2343 0 2173 -4 2295 58 64 32 175 143 207 207
62 122 58 -48 58 2295 0 2343 4 2173 -58 2295 -32 64 -143 175 -207 207 -122
62 49 58 -2299 57 -2024 0 -2144 -1 -2196 -18z m2249 -1556 c129 -31 220 -104
262 -214 32 -80 33 -227 2 -293 -45 -99 -126 -170 -230 -203 l-51 -17 122
-121 c166 -166 210 -254 222 -442 19 -292 -173 -530 -516 -640 -157 -50 -374
-45 -517 12 -85 34 -183 124 -223 206 -74 151 -67 344 17 497 69 127 136 190
224 209 50 11 106 1 121 -21 14 -23 9 -103 -13 -184 -59 -227 -18 -386 107
-410 111 -21 256 22 308 91 78 101 75 255 -7 375 -17 25 -104 117 -193 205
-171 169 -215 230 -248 344 -31 106 -17 257 33 361 52 109 206 225 331 249 71
14 180 12 249 -4z m1723 -9 c272 -49 468 -188 578 -411 99 -199 122 -499 60
-762 -98 -415 -381 -694 -777 -769 -121 -22 -295 -21 -403 5 l-85 19 -23 -21
c-19 -18 -36 -22 -85 -22 -137 0 -196 38 -216 136 -11 54 -14 58 -72 94 -128
79 -229 186 -229 243 0 29 48 31 156 7 59 -14 115 -27 125 -30 14 -5 19 1 24
32 48 295 143 603 264 859 63 132 109 187 168 203 45 13 68 -3 83 -58 21 -74
8 -178 -55 -451 -45 -197 -92 -437 -105 -540 -6 -47 -13 -97 -15 -111 -4 -25
-1 -27 53 -38 285 -55 445 -19 597 133 169 171 242 390 232 691 -6 162 -21
235 -71 334 -76 148 -246 233 -436 216 -89 -8 -330 -68 -495 -125 -139 -47
-243 -62 -264 -36 -20 24 -6 62 47 118 115 123 380 252 591 288 76 13 271 10
353 -4z m-2455 -21 c13 -9 23 -22 23 -31 0 -31 -74 -184 -102 -211 l-29 -28
-352 -5 -351 -5 -12 -65 c-12 -68 -75 -301 -98 -368 l-14 -39 121 -7 c66 -3
177 -6 247 -6 132 0 150 -5 150 -44 0 -44 -50 -183 -74 -205 l-25 -24 -242 12
c-133 7 -244 10 -247 7 -9 -10 -80 -317 -102 -441 -11 -66 -25 -180 -30 -254
-10 -154 -18 -172 -94 -210 -38 -19 -69 -25 -146 -29 -88 -4 -99 -3 -118 16
-28 28 -36 104 -29 271 6 148 21 244 71 459 l33 141 -66 -7 c-36 -4 -97 -7
-136 -7 l-70 0 -3 31 c-6 66 116 160 278 213 l65 21 48 153 c27 83 69 203 93
265 24 63 44 116 44 119 0 11 -117 -10 -191 -33 -87 -27 -166 -76 -262 -163
-37 -33 -75 -61 -83 -61 -8 0 -24 15 -35 33 -16 26 -20 44 -16 97 4 71 23 115
70 170 99 114 319 208 575 246 143 20 1075 11 1109 -11z"/>
<path d="M2423 3300 c-52 -11 -80 -25 -115 -58 -33 -30 -31 -48 18 -142 35
-67 156 -210 178 -210 17 0 93 103 119 159 11 25 22 73 25 108 4 57 2 66 -19
90 -43 47 -128 68 -206 53z"/>
</g>
</svg>
